{"title":"Underworld Evolution(2006)MPEG-4[DaScubaDude]","uid":15522000,"size":1158485890,"categoryP":"video","categoryS":"movies","magnet":"?xt=urn:btih:f19e2fb3eb939204315b5a86fe4f984e35ffe1e4&amp;dn=Underworld+Evolution%282006%29MPEG-4%5BDaScubaDude%5D&amp;tr=udp%3A%2F%2Ftracker.leechers-paradise.org%3A6969&amp;tr=udp%3A%2F%2Fzer0day.ch%3A1337&amp;tr=udp%3A%2F%2Fopen.demonii.com%3A1337&amp;tr=udp%3A%2F%2Ftracker.coppersurfer.tk%3A6969&amp;tr=udp%3A%2F%2Fexodus.desync.com%3A6969","seeders":0,"leechers":1,"uploader":"dascuba","files":1,"time":1470758878,"description":"Underworld: Evolution (2006)\r\nR | 1h 46min | Action, Adventure, Fantasy | 20 January 2006 (USA)\r\nPicking up directly from the previous film, vampire warrior Selene and the half werewolf Michael hunt for clues to reveal the history of their races and the war between them.\r\nDirector: Len Wiseman\r\nWriters: Danny McBride (screenplay), Len Wiseman (story) | \r\nStars: Kate Beckinsale, Scott Speedman, Bill Nighy \r\n\r\n| General\r\nComplete name                            : Underworld EvolutionUNDERWORLD_EVOLUTION_Title1.mp4\r\nFormat                                   : MPEG-4\r\nFormat profile                           : Base Media\r\nCodec ID                                 : isom (isom/iso2/avc1/mp41)\r\nFile size                                : 1.08 GiB\r\nDuration                                 : 1h 46mn\r\nOverall bit rate                         : 1 453 Kbps\r\nMovie name                               : UNDERWORLD_EVOLUTION\r\nGenre                                    : Horror\r\nWriting application                      : Lavf54.6.100\r\n\r\nVideo\r\nID                                       : 1\r\nFormat                                   : AVC\r\nFormat/Info                              : Advanced Video Codec\r\nFormat profile                           :   \r\nFormat settings, CABAC                   : No\r\nFormat settings, ReFrames                : 6 frames\r\nCodec ID                                 : avc1\r\nCodec ID/Info                            : Advanced Video Coding\r\nDuration                                 : 1h 46mn\r\nBit rate                                 : 1 188 Kbps\r\nWidth                                    : 720 pixels\r\nHeight                                   : 404 pixels\r\nDisplay aspect ratio                     : 16:9\r\nFrame rate mode                          : Constant\r\nFrame rate                               : 29.970 (30000/1001) fps\r\nColor space                              : YUV\r\nChroma subsampling                       : 4:2:0\r\nBit depth                                : 8 bits\r\nScan type                                : Progressive\r\nBits/(Pixel*Frame)                       : 0.136\r\nStream size                              : 903 MiB (82%)\r\n\r\nAudio\r\nID                                       : 2\r\nFormat                                   : AAC\r\nFormat/Info                              : Advanced Audio Codec\r\nFormat profile                           : LC\r\nCodec ID                                 : 40\r\nDuration                                 : 1h 46mn\r\nBit rate mode                            : Constant\r\nBit rate                                 : 258 Kbps\r\nChannel(s)                               : 2 channels\r\nChannel(s)_Original                      : 6 channels\r\nChannel positions                        : Front: L C R, Side: L R, LFE\r\nSampling rate                            : 44.1 KHz\r\nFrame rate                               : 43.066 fps (1024 spf)\r\nCompression mode                         : Lossy\r\nStream size                              : 197 MiB (18%)\r\nDefault                                  : Yes\r\nAlternate group                          : 1","torrent":{"xt":"urn:btih:f19e2fb3eb939204315b5a86fe4f984e35ffe1e4","amp;dn":"Underworld+Evolution%282006%29MPEG-4%5BDaScubaDude%5D","amp;tr":["udp%3A%2F%2Ftracker.leechers-paradise.org%3A6969","udp%3A%2F%2Fzer0day.ch%3A1337","udp%3A%2F%2Fopen.demonii.com%3A1337","udp%3A%2F%2Ftracker.coppersurfer.tk%3A6969","udp%3A%2F%2Fexodus.desync.com%3A6969"],"infoHash":"f19e2fb3eb939204315b5a86fe4f984e35ffe1e4","infoHashBuffer":{"type":"Buffer","data":[241,158,47,179,235,147,146,4,49,91,90,134,254,79,152,78,53,255,225,228]},"announce":[],"urlList":[]}}